<svg width="81" height="81" viewBox="0 0 81 81" fill="none" xmlns="http://www.w3.org/2000/svg">
<rect width="80.375" height="80.375" transform="translate(0.3125 0.3125)" fill="#564FFD" fill-opacity="0.1"/>
<path d="M29.8606 39.4088C27.9722 39.4088 26.1262 38.8488 24.556 37.7996C22.9858 36.7505 21.762 35.2593 21.0393 33.5146C20.3166 31.7699 20.1276 29.8501 20.496 27.9979C20.8644 26.1457 21.7738 24.4444 23.1091 23.1091C24.4444 21.7738 26.1457 20.8644 27.9979 20.496C29.8501 20.1276 31.7699 20.3166 33.5146 21.0393C35.2593 21.762 36.7505 22.9858 37.7996 24.556C38.8488 26.1262 39.4088 27.9722 39.4088 29.8606V35.0439C39.4088 37.4621 37.4621 39.4088 35.0439 39.4088H29.8606ZM41.5912 29.8606C41.5912 27.9722 42.1512 26.1262 43.2004 24.556C44.2495 22.9858 45.7407 21.762 47.4854 21.0393C49.2301 20.3166 51.1499 20.1276 53.0021 20.496C54.8543 20.8644 56.5556 21.7738 57.8909 23.1091C59.2262 24.4444 60.1356 26.1457 60.504 27.9979C60.8724 29.8501 60.6834 31.7699 59.9607 33.5146C59.238 35.2593 58.0142 36.7505 56.444 37.7996C54.8738 38.8488 53.0278 39.4088 51.1394 39.4088H45.9561C43.5379 39.4088 41.5912 37.4621 41.5912 35.0439V29.8606ZM51.1394 41.5912C53.0278 41.5912 54.8738 42.1512 56.444 43.2004C58.0142 44.2495 59.238 45.7407 59.9607 47.4854C60.6834 49.2301 60.8724 51.1499 60.504 53.0021C60.1356 54.8543 59.2262 56.5556 57.8909 57.8909C56.5556 59.2262 54.8543 60.1356 53.0021 60.504C51.1499 60.8724 49.2301 60.6834 47.4854 59.9607C45.7407 59.238 44.2495 58.0142 43.2004 56.444C42.1512 54.8738 41.5912 53.0278 41.5912 51.1394V45.9561C41.5912 43.5379 43.5379 41.5912 45.9561 41.5912H51.1394ZM39.4088 51.1394C39.4088 53.0278 38.8488 54.8738 37.7996 56.444C36.7505 58.0142 35.2593 59.238 33.5146 59.9607C31.7699 60.6834 29.8501 60.8724 27.9979 60.504C26.1457 60.1356 24.4444 59.2262 23.1091 57.8909C21.7738 56.5556 20.8644 54.8543 20.496 53.0021C20.1276 51.1499 20.3166 49.2301 21.0393 47.4854C21.762 45.7407 22.9858 44.2495 24.556 43.2004C26.1262 42.1512 27.9722 41.5912 29.8606 41.5912H35.0439C37.4621 41.5912 39.4088 43.5379 39.4088 45.9561V51.1394Z" stroke="#564FFD" stroke-width="4.36486" stroke-linecap="round" stroke-linejoin="round"/>
</svg>
