<svg width="81" height="81" viewBox="0 0 81 81" fill="none" xmlns="http://www.w3.org/2000/svg">
<rect width="80" height="80" transform="translate(0.5 0.5)" fill="#B91114" fill-opacity="0.1"/>
<path d="M25.9545 60.5C24.4394 60.5 23.1515 59.8519 22.0909 58.5556C21.0303 57.2593 20.5 55.6852 20.5 53.8333C20.5 51.9815 21.0303 50.4074 22.0909 49.1111C23.1515 47.8148 24.4394 47.1667 25.9545 47.1667C26.2273 47.1667 26.4927 47.1948 26.7509 47.2511C27.0091 47.3074 27.2588 47.3719 27.5 47.4444L34.8636 35.0556C34.3485 34.2778 33.9467 33.4074 33.6582 32.4444C33.3697 31.4815 33.2261 30.463 33.2273 29.3889C33.2273 26.9444 33.9394 24.8519 35.3636 23.1111C36.7879 21.3704 38.5 20.5 40.5 20.5C42.5 20.5 44.2121 21.3704 45.6364 23.1111C47.0606 24.8519 47.7727 26.9444 47.7727 29.3889C47.7727 30.463 47.6212 31.4815 47.3182 32.4444C47.0152 33.4074 46.6061 34.2778 46.0909 35.0556L53.5 47.4444C53.7424 47.3704 53.9927 47.3052 54.2509 47.2489C54.5091 47.1926 54.7739 47.1652 55.0455 47.1667C56.5606 47.1667 57.8485 47.8148 58.9091 49.1111C59.9697 50.4074 60.5 51.9815 60.5 53.8333C60.5 55.6852 59.9697 57.2593 58.9091 58.5556C57.8485 59.8519 56.5606 60.5 55.0455 60.5C53.5303 60.5 52.2424 59.8519 51.1818 58.5556C50.1212 57.2593 49.5909 55.6852 49.5909 53.8333C49.5909 53.1296 49.6745 52.4533 49.8418 51.8044C50.0091 51.1556 50.2436 50.5726 50.5455 50.0556L43.1818 37.6667C43.0303 37.7407 42.8867 37.7963 42.7509 37.8333C42.6152 37.8704 42.4709 37.9259 42.3182 38V47.5556C43.3788 48 44.2503 48.7963 44.9327 49.9444C45.6152 51.0926 45.9558 52.3889 45.9545 53.8333C45.9545 55.6852 45.4242 57.2593 44.3636 58.5556C43.303 59.8519 42.0152 60.5 40.5 60.5C38.9848 60.5 37.697 59.8519 36.6364 58.5556C35.5758 57.2593 35.0455 55.6852 35.0455 53.8333C35.0455 52.3889 35.3867 51.1022 36.0691 49.9733C36.7515 48.8444 37.6224 48.0378 38.6818 47.5533V37.9978C38.5303 37.9237 38.3861 37.8681 38.2491 37.8311C38.1121 37.7941 37.9685 37.7385 37.8182 37.6644L30.4545 50.0556C30.7576 50.5741 30.9927 51.1578 31.16 51.8067C31.3273 52.4556 31.4103 53.1311 31.4091 53.8333C31.4091 55.6852 30.8788 57.2593 29.8182 58.5556C28.7576 59.8519 27.4697 60.5 25.9545 60.5Z" fill="#B91114"/>
</svg>
