<svg width="46" height="45" viewBox="0 0 46 45" fill="none" xmlns="http://www.w3.org/2000/svg">
<rect y="0.5" width="46" height="44" rx="4" fill="#564FFD"/>
<path d="M22.9672 29.679C22.0127 29.679 21.1626 29.5149 20.4168 29.1868C19.6753 28.8544 19.0894 28.3984 18.659 27.8189C18.2329 27.2351 18.0134 26.5618 18.0006 25.799H20.7876C20.8046 26.1186 20.909 26.3999 21.1008 26.6428C21.2968 26.8814 21.5567 27.0668 21.8806 27.1989C22.2045 27.331 22.5688 27.397 22.9736 27.397C23.3955 27.397 23.7684 27.3224 24.0922 27.1733C24.4161 27.0241 24.6697 26.8175 24.8529 26.5533C25.0361 26.2891 25.1278 25.9844 25.1278 25.6392C25.1278 25.2898 25.0297 24.9808 24.8337 24.7124C24.642 24.4396 24.365 24.2266 24.0028 24.0732C23.6448 23.9197 23.2187 23.843 22.7243 23.843H21.5035V21.8104H22.7243C23.142 21.8104 23.5106 21.7379 23.8302 21.593C24.154 21.4482 24.4055 21.2479 24.5844 20.9922C24.7634 20.7322 24.8529 20.4297 24.8529 20.0845C24.8529 19.7564 24.7741 19.4688 24.6164 19.2216C24.463 18.9702 24.2457 18.7741 23.9644 18.6335C23.6874 18.4929 23.3635 18.4226 22.9928 18.4226C22.6178 18.4226 22.2748 18.4908 21.9637 18.6271C21.6526 18.7592 21.4033 18.9489 21.2158 19.196C21.0283 19.4432 20.9282 19.733 20.9154 20.0653H18.2627C18.2755 19.3111 18.4907 18.6463 18.9083 18.071C19.3259 17.4957 19.8884 17.0462 20.5958 16.7223C21.3074 16.3942 22.1107 16.2301 23.0056 16.2301C23.909 16.2301 24.6995 16.3942 25.377 16.7223C26.0546 17.0504 26.5809 17.4936 26.9559 18.0518C27.3351 18.6058 27.5226 19.228 27.5184 19.9183C27.5226 20.6513 27.2947 21.2628 26.8344 21.7528C26.3785 22.2429 25.784 22.554 25.051 22.6861V22.7884C26.0141 22.9119 26.7471 23.2464 27.2499 23.7919C27.757 24.3331 28.0084 25.0107 28.0042 25.8246C28.0084 26.5703 27.7932 27.233 27.3586 27.8125C26.9282 28.392 26.3337 28.848 25.5752 29.1804C24.8167 29.5128 23.9474 29.679 22.9672 29.679Z" fill="white"/>
</svg>
