<svg width="46" height="45" viewBox="0 0 46 45" fill="none" xmlns="http://www.w3.org/2000/svg">
<rect y="0.5" width="46" height="44" rx="4" fill="#564FFD"/>
<path d="M18.3921 29.5V27.5057L23.0519 23.1911C23.4482 22.8075 23.7806 22.4624 24.0491 22.1555C24.3218 21.8487 24.5285 21.5483 24.6691 21.2543C24.8097 20.956 24.8801 20.6342 24.8801 20.2891C24.8801 19.9055 24.7927 19.5753 24.618 19.2983C24.4433 19.017 24.2046 18.8018 23.9021 18.6527C23.5995 18.4993 23.2565 18.4226 22.873 18.4226C22.4724 18.4226 22.123 18.5036 21.8247 18.6655C21.5264 18.8274 21.2963 19.0597 21.1343 19.3622C20.9724 19.6648 20.8914 20.0249 20.8914 20.4425H18.2643C18.2643 19.5859 18.4582 18.8423 18.846 18.2116C19.2338 17.581 19.7771 17.093 20.4759 16.7479C21.1748 16.4027 21.9802 16.2301 22.8921 16.2301C23.8296 16.2301 24.6457 16.3963 25.3403 16.7287C26.0392 17.0568 26.5825 17.5128 26.9703 18.0966C27.358 18.6804 27.5519 19.3494 27.5519 20.1037C27.5519 20.598 27.4539 21.0859 27.2579 21.5675C27.0661 22.049 26.7231 22.5838 26.2288 23.1719C25.7345 23.7557 25.0377 24.4567 24.1386 25.2749L22.2274 27.1477V27.2372H27.7245V29.5H18.3921Z" fill="white"/>
</svg>
