<svg width="167" height="78" viewBox="0 0 167 78" fill="none" xmlns="http://www.w3.org/2000/svg">
<path d="M30.4863 33.7772C30.4863 35.7357 30.1722 37.5002 29.544 39.0707C28.9343 40.6228 28.1213 41.9531 27.1051 43.0617C26.0889 44.1518 24.9249 44.9925 23.6131 45.5837C22.3012 46.175 20.9432 46.4706 19.539 46.4706C18.763 46.4706 17.9962 46.3875 17.2386 46.2212C16.4811 46.0364 15.7328 45.7408 14.9937 45.3343C15.16 46.7016 15.4279 48.1058 15.7975 49.547C16.1116 50.7849 16.555 52.1706 17.1278 53.7042C17.719 55.2193 18.4951 56.7066 19.4558 58.1663C17.5712 57.963 15.8714 57.8245 14.3563 57.7506C12.8597 57.6582 11.5017 57.612 10.2822 57.612C8.6378 57.612 7.25206 57.6674 6.12498 57.7783C5.01639 57.8891 4.11104 58.0185 3.40893 58.1663C2.59596 58.3326 1.94928 58.5081 1.46889 58.6929C1.9308 57.2702 2.32805 55.7181 2.66063 54.0368C2.99321 52.3554 3.27035 50.6001 3.49207 48.771C3.71379 46.9418 3.88008 45.0756 3.99094 43.1725C4.1018 41.251 4.15723 39.3479 4.15723 37.4633C4.15723 35.4124 4.09256 33.4077 3.96323 31.4492C3.83389 29.4722 3.63989 27.6245 3.38121 25.9062C3.14102 24.1694 2.83615 22.5896 2.46662 21.1669C2.09709 19.7443 1.67213 18.5525 1.19174 17.5917C2.07861 17.8689 3.00244 18.0721 3.96323 18.2015C4.94248 18.3123 5.93098 18.3677 6.92872 18.3677C7.83407 18.3677 8.73942 18.3308 9.64477 18.2569C10.5686 18.1645 11.474 18.0721 12.3608 17.9797C13.2477 17.8874 14.1069 17.8042 14.9383 17.7303C15.7698 17.6379 16.5458 17.5917 17.2664 17.5917C18.0424 17.5917 18.9015 17.6934 19.8438 17.8966C20.8046 18.0998 21.7746 18.4509 22.7539 18.9498C23.7332 19.4302 24.6847 20.0768 25.6085 20.8898C26.5324 21.7028 27.3546 22.7097 28.0752 23.9107C28.7957 25.1117 29.3685 26.5252 29.7935 28.1511C30.2369 29.777 30.4679 31.6524 30.4863 33.7772ZM14.6889 38.2947C15.1508 37.8513 15.6774 37.3155 16.2686 36.6873C16.8784 36.0406 17.4511 35.3477 17.9869 34.6087C18.5228 33.8511 18.9662 33.0751 19.3173 32.2806C19.6868 31.4861 19.8716 30.7286 19.8716 30.008C19.8716 29.1765 19.6314 28.5206 19.151 28.0402C18.6891 27.5414 18.1717 27.2919 17.5989 27.2919C17.0816 27.2919 16.6474 27.4675 16.2963 27.8185C15.9638 28.1696 15.6866 28.6315 15.4649 29.2043C15.2432 29.7586 15.0769 30.3868 14.966 31.0889C14.8552 31.7725 14.772 32.4561 14.7166 33.1398C14.6612 33.8049 14.6334 34.4331 14.6334 35.0244C14.6334 35.5972 14.6334 36.0498 14.6334 36.3824C14.6334 36.6965 14.6334 37.0106 14.6334 37.3247C14.6334 37.6388 14.6519 37.9622 14.6889 38.2947ZM47.337 17.5363C46.7088 21.0469 46.2838 24.3542 46.0621 27.4582C45.8589 30.5438 45.7572 33.5185 45.7572 36.3824C46.718 34.2576 47.6603 32.0589 48.5842 29.7863C49.5265 27.4952 50.4503 25.1117 51.3556 22.6358C52.2979 25.3704 53.2402 27.9109 54.1826 30.2574C55.1249 32.6039 56.1503 34.8489 57.2589 36.9921V34.4424C57.2589 31.56 57.1203 28.7239 56.8432 25.9339C56.5845 23.1439 56.1411 20.4926 55.5129 17.9797C55.5868 18.0352 55.8085 18.1091 56.178 18.2015C56.5476 18.2754 57.0279 18.3493 57.6192 18.4232C58.2289 18.4786 58.931 18.534 59.7255 18.5895C60.52 18.6449 61.3884 18.6726 62.3307 18.6726C63.7719 18.6726 65.3239 18.5895 66.9868 18.4232C68.6682 18.2569 70.3496 17.9613 72.0309 17.5363C71.6244 18.3493 71.2364 19.4486 70.8669 20.8344C70.4974 22.2016 70.1463 23.7629 69.8137 25.5182C69.4996 27.2735 69.2132 29.1858 68.9546 31.2552C68.6959 33.3245 68.4742 35.4678 68.2894 37.685C68.1047 39.8837 67.9568 42.1101 67.846 44.3643C67.7536 46.6184 67.7074 48.8171 67.7074 50.9604C67.7074 52.3277 67.7259 53.6488 67.7628 54.9237C67.8183 56.1801 67.8922 57.3903 67.9846 58.5543C66.1369 58.2402 64.4925 58.0277 63.0513 57.9169C61.6101 57.7875 60.3445 57.7229 59.2544 57.7229C58.5523 57.7229 57.9333 57.7413 57.3975 57.7783C56.8617 57.8152 56.409 57.8522 56.0394 57.8891C55.6145 57.9446 55.245 58 54.9309 58.0554C54.7091 56.411 54.4782 54.8036 54.238 53.233C53.9978 51.6625 53.7206 50.1659 53.4065 48.7432C53.0924 47.3021 52.7321 45.9533 52.3257 44.6969C51.9192 43.422 51.4295 42.258 50.8568 41.2048C50.4318 42.4058 50.0623 43.6437 49.7482 44.9186C49.4526 46.1935 49.2031 47.5423 48.9999 48.965C48.7966 50.3877 48.6488 51.8935 48.5564 53.4825C48.4641 55.0715 48.4179 56.7621 48.4179 58.5543C46.5702 58.2402 44.9073 58.0277 43.4292 57.9169C41.9695 57.7875 40.7131 57.7229 39.66 57.7229C38.9394 57.7229 38.3112 57.7413 37.7754 57.7783C37.2395 57.8152 36.7869 57.8522 36.4173 57.8891C35.9924 57.9446 35.6413 58 35.3642 58.0554C35.475 56.0045 35.5305 53.852 35.5305 51.5979C35.5305 49.4915 35.4843 47.3483 35.3919 45.168C35.2995 42.9878 35.1609 40.8353 34.9762 38.7105C34.7914 36.5672 34.5604 34.4793 34.2833 32.4469C34.0246 30.4145 33.7197 28.5114 33.3687 26.7376C33.0361 24.9454 32.6481 23.3102 32.2047 21.8321C31.7797 20.3355 31.3178 19.0514 30.8189 17.9797C31.3547 18.1276 31.983 18.2477 32.7035 18.34C33.3133 18.4324 34.0431 18.5156 34.893 18.5895C35.7614 18.6449 36.7314 18.6726 37.8031 18.6726C39.1334 18.6726 40.6023 18.5895 42.2097 18.4232C43.8357 18.2569 45.5448 17.9613 47.337 17.5363Z" fill="#FA8232"/>
<path d="M94.2314 15.5014C95.8357 13.996 97.2717 12.7383 98.5393 11.7281C97.5094 11.6687 95.9645 11.54 93.9045 11.3419C94.063 12.8472 94.1719 14.2337 94.2314 15.5014ZM104.541 7.89551C104.798 8.07378 104.927 8.31146 104.927 8.60856C104.927 9.32161 104.323 10.2525 103.115 11.4013C101.926 12.5303 100.233 13.9663 98.0343 15.7093C96.8855 16.6204 96.014 17.3236 95.4198 17.8188C94.8454 18.3139 94.4888 18.6903 94.3502 18.9478C94.2512 19.126 94.1818 19.334 94.1422 19.5717C94.1026 19.8094 94.0828 20.0668 94.0828 20.3441C94.0828 20.6016 94.0729 20.8195 94.0531 20.9978C93.9144 21.9683 93.756 22.82 93.5777 23.5529C93.3995 24.2857 93.1915 24.9294 92.9538 25.484C92.7359 26.0386 92.4289 26.5338 92.0328 26.9695C91.7753 27.2666 91.4782 27.5439 91.1415 27.8014C90.8048 28.0391 90.4878 28.158 90.1907 28.158C89.5173 28.158 89.1806 27.6133 89.1806 26.5239C89.1806 26.1674 89.2103 25.7613 89.2697 25.3058C89.349 24.8304 89.3985 24.5234 89.4183 24.3847L89.5668 23.434C89.1311 23.7905 88.7349 23.9688 88.3784 23.9688C88.1407 23.9688 87.9625 23.8896 87.8436 23.7311C87.7248 23.5727 87.6654 23.3548 87.6654 23.0775C87.6654 22.6814 87.7743 22.2753 87.9922 21.8594C88.1704 21.5028 88.4874 21.077 88.9429 20.5818C89.2994 20.1659 89.547 19.849 89.6857 19.6311C89.8441 19.3934 89.9531 19.1359 90.0125 18.8586C90.1709 17.8485 90.2502 16.8779 90.2502 15.947C90.2502 15.1944 90.2106 14.5308 90.1313 13.9564C90.0719 13.4811 89.9828 13.0156 89.8639 12.56C89.8441 12.461 89.7847 12.1639 89.6857 11.6687C89.5866 11.1537 89.5371 10.6784 89.5371 10.2426C89.5371 8.1431 90.7255 7.09333 93.1024 7.09333C93.3598 7.09333 93.7461 7.11314 94.2611 7.15275C95.5287 7.2716 97.0439 7.35082 98.8067 7.39044L99.7278 7.42015L101.897 7.39044C103.144 7.39044 104.026 7.5588 104.541 7.89551ZM111.152 16.9572C111.231 16.561 111.528 16.2243 112.043 15.947C112.578 15.6697 113.103 15.5311 113.618 15.5311C114.291 15.5311 114.589 15.7886 114.509 16.3035L114.391 16.9869C114.093 18.6705 113.786 20.0966 113.469 21.2652C113.172 22.414 112.707 23.5331 112.073 24.6224C111.459 25.7118 110.647 26.5734 109.637 27.2072C108.33 28.0391 106.993 28.4551 105.626 28.4551C104.814 28.4551 104.051 28.2867 103.338 27.95C102.645 27.6133 102.061 27.0884 101.585 26.3753C100.753 25.1473 100.338 23.741 100.338 22.1565C100.338 20.0173 101.1 17.5415 102.625 14.7289C103.14 13.7584 103.675 12.9859 104.23 12.4115C104.804 11.8371 105.517 11.4905 106.369 11.3716C106.448 11.3518 106.557 11.3419 106.696 11.3419C107.012 11.3419 107.29 11.4013 107.527 11.5202C108.122 10.2129 108.577 9.23248 108.894 8.57885C109.033 8.28175 109.36 8.02426 109.875 7.80638C110.409 7.58851 110.904 7.47957 111.36 7.47957C111.954 7.47957 112.251 7.66773 112.251 8.04406C112.251 8.12329 112.222 8.24213 112.162 8.40059C110.796 11.7281 109.686 14.3129 108.835 16.155C108.696 16.4719 108.369 16.7393 107.854 16.9572C107.359 17.175 106.874 17.284 106.398 17.284C106.082 17.284 105.824 17.2345 105.626 17.1354C105.428 17.0364 105.329 16.8779 105.329 16.6601C105.329 16.5214 105.368 16.3729 105.448 16.2144L105.893 15.2043C105.794 15.1844 105.705 15.1349 105.626 15.0557L105.032 16.4521C104.477 17.6603 104.111 18.8685 103.932 20.0767C103.873 20.4531 103.843 20.8393 103.843 21.2355C103.843 22.0871 103.972 22.8893 104.23 23.642C104.487 24.3947 104.893 24.9988 105.448 25.4543C105.903 25.8505 106.349 26.0485 106.785 26.0485C108.528 26.0485 109.983 23.0181 111.152 16.9572ZM102.996 44.8658C103.273 44.9846 103.412 45.361 103.412 45.9948C103.412 46.3909 103.362 46.8564 103.263 47.3912C103.164 47.926 103.105 48.2726 103.085 48.431C102.946 49.6393 102.748 51.0059 102.491 52.5311C102.214 54.2543 101.986 55.5912 101.807 56.542C101.629 57.4729 101.382 58.4236 101.065 59.3942C100.688 60.543 100.183 61.5927 99.5495 62.5435C98.9157 63.4942 98.1531 64.0686 97.2618 64.2666C97.0637 64.3063 96.9251 64.3261 96.8459 64.3261C96.2715 64.3261 95.8357 64.0686 95.5386 63.5536C95.2415 63.0386 95.0533 62.4939 94.9741 61.9195C94.8949 61.3451 94.8256 60.6222 94.7661 59.7507C94.3898 60.8995 94.0135 61.87 93.6371 62.6623C93.2608 63.4348 92.7557 64.1082 92.1219 64.6826C91.5871 65.158 91.1217 65.3956 90.7255 65.3956C90.0521 65.3956 89.6262 64.6925 89.448 63.2862C89.2895 62.0384 89.1113 60.1666 88.9132 57.671C88.6755 54.7593 88.4576 52.6103 88.2596 51.2238C88.22 50.9267 88.1209 50.4414 87.9625 49.768C87.8436 49.3124 87.7347 48.8371 87.6357 48.3419C87.5564 47.8467 87.5168 47.4011 87.5168 47.0049C87.5168 46.6286 87.5663 46.2622 87.6654 45.9057C87.8238 45.3907 88.1011 44.9153 88.4973 44.4796C88.9132 44.024 89.3093 43.7962 89.6857 43.7962C90.1214 43.7962 90.4185 44.1032 90.577 44.7173C90.8543 45.7274 91.1217 47.104 91.3792 48.847C91.4188 49.0847 91.4683 49.4313 91.5277 49.8868C91.6069 50.3424 91.6763 50.7286 91.7357 51.0456C92.1318 53.1253 92.4289 55.205 92.627 57.2847L92.8647 56.0963C93.0231 55.205 93.1717 54.482 93.3103 53.9275C93.4688 53.3729 93.6966 52.848 93.9937 52.3528C94.2908 51.8576 94.6275 51.412 95.0038 51.0158C95.3802 50.5999 95.7664 50.3919 96.1625 50.3919C96.5587 50.3919 96.8657 50.6197 97.0835 51.0753C97.3212 51.511 97.4797 51.9567 97.5589 52.4122C97.6381 52.848 97.7174 53.4323 97.7966 54.1651C97.8362 54.5613 97.8758 55.1555 97.9154 55.9478C97.9947 57.4135 98.1333 58.5821 98.3314 59.4536C98.6879 58.0275 98.9751 56.0864 99.193 53.6304C99.4109 51.7289 99.5297 50.7088 99.5495 50.5702C99.6881 49.5996 99.807 48.8668 99.906 48.3716C100.025 47.8566 100.203 47.3516 100.441 46.8564C100.678 46.4008 101.005 45.9453 101.421 45.4897C101.837 45.0144 102.243 44.7767 102.639 44.7767C102.758 44.7767 102.877 44.8064 102.996 44.8658ZM105.95 49.976C105.97 49.5798 106.257 49.2332 106.812 48.9361C107.366 48.6192 107.921 48.4608 108.475 48.4608C108.792 48.4608 109.05 48.5301 109.248 48.6687C109.446 48.7876 109.535 48.9856 109.515 49.2629L108.654 65.3956C108.634 65.8116 108.347 66.178 107.792 66.4949C107.237 66.792 106.683 66.9406 106.128 66.9406C105.395 66.9406 105.039 66.6534 105.059 66.079L105.95 49.976ZM105.891 46.0542C105.851 46.3315 105.92 46.5395 106.099 46.6781C106.297 46.8168 106.554 46.8861 106.871 46.8861C107.406 46.8861 107.95 46.7376 108.505 46.4405C109.06 46.1433 109.367 45.7868 109.426 45.3709C109.585 44.3805 109.693 43.6378 109.753 43.1426C109.832 42.6474 109.525 42.3998 108.832 42.3998C108.297 42.3998 107.743 42.5484 107.168 42.8455C106.594 43.1426 106.287 43.4793 106.247 43.8557L105.891 46.0542ZM124.227 48.8767C124.484 48.8767 124.732 48.9658 124.97 49.1441C125.227 49.3025 125.356 49.4907 125.356 49.7086C125.356 49.867 125.316 49.9958 125.237 50.0948C124.683 50.9663 124.068 51.7883 123.395 52.5608C122.722 53.3332 121.801 54.3434 120.632 55.5912L120.959 55.5615C122.009 55.5615 122.533 55.8289 122.533 56.3637C122.533 56.7598 122.325 57.0767 121.91 57.3144C121.494 57.5521 121.058 57.7007 120.602 57.7601C120.147 57.8195 119.463 57.8888 118.552 57.9681L117.75 58.9188C116.641 60.1864 115.829 61.1471 115.314 61.8007L114.393 62.9297C115.641 62.7316 117.512 62.3751 120.008 61.8601L121.88 61.4739L122.355 61.4145C122.672 61.4145 122.91 61.4937 123.068 61.6521C123.227 61.7908 123.306 61.9691 123.306 62.1869C123.306 62.484 123.187 62.7712 122.949 63.0485C122.712 63.3258 122.395 63.514 121.999 63.613C118.532 64.5241 115.056 65.1877 111.57 65.6036C111.194 65.6432 110.828 65.6036 110.471 65.4848C110.134 65.3461 109.966 65.0886 109.966 64.7123C109.966 64.3954 110.075 64.0686 110.293 63.7319C110.53 63.3753 110.778 63.0485 111.036 62.7514C111.293 62.4543 111.471 62.2463 111.57 62.1275C112.363 61.0975 113.432 59.82 114.779 58.2949C114.64 58.2949 114.502 58.3048 114.363 58.3246C114.244 58.3444 114.116 58.3543 113.977 58.3543C113.541 58.3543 113.165 58.3048 112.848 58.2057C112.551 58.1067 112.402 57.8789 112.402 57.5224C112.402 57.1461 112.62 56.8391 113.056 56.6014C113.492 56.3439 113.917 56.1953 114.333 56.1557C115.443 56.0369 116.274 55.9577 116.829 55.918L118.76 53.6898L119.8 52.5014L120.84 51.3129L118.552 51.61C116.374 51.9468 114.66 52.1052 113.412 52.0854C112.719 52.0656 112.373 51.8873 112.373 51.5506C112.373 51.3129 112.521 51.0555 112.818 50.7782C113.135 50.5009 113.462 50.3127 113.799 50.2137C114.432 49.9958 115.086 49.8373 115.76 49.7383C116.433 49.6195 117.285 49.5105 118.315 49.4115C118.651 49.3917 119.137 49.3422 119.77 49.2629C120.503 49.1639 121.266 49.0748 122.058 48.9955C122.85 48.9163 123.573 48.8767 124.227 48.8767ZM131.159 56.9282L130.922 57.5224L133.001 59.2753L132.793 58.4137C132.655 57.8591 132.377 56.6806 131.961 54.8782L131.159 56.9282ZM134.546 48.2528C134.823 49.976 135.17 51.7289 135.586 53.5115C136.022 55.2743 136.547 57.3045 137.161 59.6021C137.735 61.7809 138.111 63.2268 138.29 63.9398C138.309 63.9993 138.319 64.0884 138.319 64.2072C138.319 64.6826 138.052 65.0985 137.517 65.4551C136.982 65.7918 136.428 65.9601 135.853 65.9601C135.378 65.9601 135.012 65.8314 134.754 65.5739C134.18 64.9599 133.576 64.3756 132.942 63.821C132.308 63.2664 131.476 62.5831 130.446 61.771L129.466 60.9688C128.634 62.7514 127.99 64.0686 127.535 64.9203C127.396 65.2174 127.029 65.4947 126.435 65.7522C125.861 65.9898 125.326 66.1087 124.831 66.1087C124.276 66.1087 123.999 65.9304 123.999 65.5739C123.999 65.4749 124.029 65.356 124.088 65.2174C124.682 63.7517 125.385 62.0681 126.198 60.1666L126.821 58.6514C126.326 58.1562 126.079 57.9086 126.079 57.9086C125.94 57.77 125.871 57.6115 125.871 57.4333C125.871 57.0966 126.089 56.7796 126.524 56.4825C126.96 56.1656 127.445 55.9577 127.98 55.8586C128.931 53.5808 129.822 51.2634 130.654 48.9064C130.733 48.6291 130.981 48.3914 131.397 48.1934C131.833 47.9755 132.288 47.8368 132.764 47.7774C133.1 47.6784 133.387 47.6289 133.625 47.6289C134.18 47.6289 134.487 47.8368 134.546 48.2528ZM145.134 55.3833C145.906 54.7692 146.53 54.2246 147.005 53.7492C147.5 53.2738 147.877 52.7985 148.134 52.3231C147.065 52.0458 145.48 51.5902 143.381 50.9564L143.232 56.9876C143.826 56.4924 144.173 56.1953 144.272 56.0963L145.134 55.3833ZM149.917 59.5427C150.075 59.2258 150.412 58.9584 150.927 58.7405C151.442 58.5028 151.937 58.384 152.413 58.384C153.066 58.384 153.393 58.592 153.393 59.0079C153.393 59.1268 153.363 59.2654 153.304 59.4239C152.492 61.3253 151.878 63.1674 151.462 64.95C151.363 65.3461 151.076 65.7126 150.6 66.0493C150.402 66.3068 150.095 66.5246 149.679 66.7029C149.283 66.8812 148.887 66.9703 148.491 66.9703C148.154 66.9703 147.877 66.901 147.659 66.7623C147.461 66.6237 147.352 66.4058 147.332 66.1087C147.253 64.8212 146.827 63.6427 146.055 62.5732C145.302 61.5036 144.331 60.8103 143.143 60.4934L142.994 64.8014C142.975 65.1778 142.658 65.5244 142.044 65.8413C141.449 66.1582 140.875 66.3167 140.32 66.3167C140.023 66.3167 139.786 66.2671 139.607 66.1681C139.429 66.0493 139.34 65.871 139.34 65.6333L139.429 61.5333C139.172 61.355 139.043 61.1471 139.043 60.9094C139.043 60.6321 139.191 60.3647 139.489 60.1072C139.588 56.5023 139.706 52.9074 139.845 49.3224C139.865 48.9064 140.142 48.5499 140.677 48.2528C141.232 47.9359 141.786 47.7774 142.341 47.7774C142.757 47.7774 143.054 47.8764 143.232 48.0745C145.391 48.6687 147.629 49.3224 149.947 50.0354C150.303 49.9562 150.551 49.9166 150.689 49.9166C151.026 49.9166 151.284 49.9958 151.462 50.1542C151.66 50.2929 151.759 50.5108 151.759 50.8079C151.759 51.62 151.492 52.3726 150.957 53.0659C150.422 53.7393 149.679 54.4919 148.728 55.3238L148.134 55.8586C147.184 56.7895 146.262 57.6115 145.371 58.3246C146.995 58.7801 148.303 59.6814 149.293 61.0282C149.372 60.8302 149.58 60.335 149.917 59.5427ZM157.502 60.8203C159.582 59.2159 161.216 57.5125 162.404 55.7101C160.82 55.2347 159.225 54.2741 157.621 52.8282C157.581 54.6306 157.542 57.2946 157.502 60.8203ZM166.088 54.076C166.227 54.175 166.296 54.3038 166.296 54.4622C166.296 54.6009 166.257 54.7395 166.177 54.8782C165.128 56.8985 163.741 58.691 162.018 60.2558C160.295 61.8205 158.205 63.3852 155.749 64.95C155.511 65.0886 155.244 65.2174 154.947 65.3362C154.65 65.4353 154.363 65.4848 154.085 65.4848C153.788 65.4848 153.531 65.4055 153.313 65.2471C153.075 65.0688 152.956 64.851 152.956 64.5935C152.956 64.2567 153.145 63.9596 153.521 63.7022C153.56 63.6823 153.6 63.6526 153.64 63.613C153.679 63.5734 153.739 63.5338 153.818 63.4942L153.937 56.126C153.976 54.5217 154.016 52.0755 154.056 48.7876C154.036 48.748 154.026 48.6786 154.026 48.5796C154.026 48.54 154.046 48.4409 154.085 48.2825V47.9557C154.105 47.5793 154.363 47.2624 154.858 47.0049C155.353 46.7276 155.878 46.589 156.432 46.589C156.809 46.589 157.106 46.6583 157.324 46.797C157.561 46.9356 157.68 47.1535 157.68 47.4506V47.7477C160.077 51.0555 162.691 53.0758 165.524 53.8086C165.821 53.9076 166.009 53.9968 166.088 54.076Z" fill="black"/>
</svg>
