<svg width="81" height="81" viewBox="0 0 81 81" fill="none" xmlns="http://www.w3.org/2000/svg">
<rect width="80" height="80" transform="translate(0.5 0.5)" fill="#388C1F" fill-opacity="0.1"/>
<path d="M54.6213 26.375C52.7697 24.5123 50.5676 23.0343 48.1419 22.026C45.7161 21.0177 43.1147 20.499 40.4875 20.5C29.4306 20.5 20.5 29.45 20.5 40.5C20.5 51.55 29.4306 60.5 40.4875 60.5C49.8183 60.5 57.5982 54.125 59.8246 45.5H54.6213C53.5908 48.4238 51.6778 50.9559 49.1463 52.7471C46.6147 54.5382 43.5893 55.5001 40.4875 55.5C32.2073 55.5 25.4781 48.775 25.4781 40.5C25.4781 32.225 32.2073 25.5 40.4875 25.5C44.6401 25.5 48.3424 27.225 51.0441 29.95L42.9891 38H60.5V20.5L54.6213 26.375Z" fill="#388C1F"/>
</svg>
