<svg width="72" height="42" viewBox="0 0 72 42" fill="none" xmlns="http://www.w3.org/2000/svg">
<path d="M29.4863 16.7772C29.4863 18.7357 29.1722 20.5002 28.544 22.0707C27.9343 23.6228 27.1213 24.9531 26.1051 26.0617C25.0889 27.1518 23.9249 27.9925 22.6131 28.5837C21.3012 29.175 19.9432 29.4706 18.539 29.4706C17.763 29.4706 16.9962 29.3875 16.2386 29.2212C15.4811 29.0364 14.7328 28.7408 13.9937 28.3343C14.16 29.7016 14.4279 31.1058 14.7975 32.547C15.1116 33.7849 15.555 35.1706 16.1278 36.7042C16.719 38.2193 17.4951 39.7066 18.4558 41.1663C16.5712 40.963 14.8714 40.8245 13.3563 40.7506C11.8597 40.6582 10.5017 40.612 9.28221 40.612C7.6378 40.612 6.25206 40.6674 5.12498 40.7783C4.01639 40.8891 3.11104 41.0185 2.40893 41.1663C1.59596 41.3326 0.949279 41.5081 0.468888 41.6929C0.930802 40.2702 1.32805 38.7181 1.66063 37.0368C1.99321 35.3554 2.27035 33.6001 2.49207 31.771C2.71379 29.9418 2.88008 28.0756 2.99094 26.1725C3.1018 24.251 3.15723 22.3479 3.15723 20.4633C3.15723 18.4124 3.09256 16.4077 2.96323 14.4492C2.83389 12.4722 2.63989 10.6245 2.38121 8.90619C2.14102 7.16939 1.83615 5.58965 1.46662 4.16695C1.09709 2.74425 0.67213 1.55251 0.191739 0.591732C1.07861 0.86888 2.00244 1.07212 2.96323 1.20146C3.94248 1.31232 4.93098 1.36775 5.92872 1.36775C6.83407 1.36775 7.73942 1.33079 8.64477 1.25689C9.5686 1.16451 10.474 1.07212 11.3608 0.97974C12.2477 0.887357 13.1069 0.804212 13.9383 0.730306C14.7698 0.637923 15.5458 0.591732 16.2664 0.591732C17.0424 0.591732 17.9015 0.693353 18.8438 0.896595C19.8046 1.09984 20.7746 1.45089 21.7539 1.94976C22.7332 2.43015 23.6847 3.07683 24.6085 3.8898C25.5324 4.70277 26.3546 5.70974 27.0752 6.91072C27.7957 8.1117 28.3685 9.52516 28.7935 11.1511C29.2369 12.777 29.4679 14.6524 29.4863 16.7772ZM13.6889 21.2947C14.1508 20.8513 14.6774 20.3155 15.2686 19.6873C15.8784 19.0406 16.4511 18.3477 16.9869 17.6087C17.5228 16.8511 17.9662 16.0751 18.3173 15.2806C18.6868 14.4861 18.8716 13.7286 18.8716 13.008C18.8716 12.1765 18.6314 11.5206 18.151 11.0402C17.6891 10.5414 17.1717 10.2919 16.5989 10.2919C16.0816 10.2919 15.6474 10.4675 15.2963 10.8185C14.9638 11.1696 14.6866 11.6315 14.4649 12.2043C14.2432 12.7586 14.0769 13.3868 13.966 14.0889C13.8552 14.7725 13.772 15.4561 13.7166 16.1398C13.6612 16.8049 13.6334 17.4331 13.6334 18.0244C13.6334 18.5972 13.6334 19.0498 13.6334 19.3824C13.6334 19.6965 13.6334 20.0106 13.6334 20.3247C13.6334 20.6388 13.6519 20.9622 13.6889 21.2947ZM46.337 0.536302C45.7088 4.04685 45.2838 7.35416 45.0621 10.4582C44.8589 13.5438 44.7572 16.5185 44.7572 19.3824C45.718 17.2576 46.6603 15.0589 47.5842 12.7863C48.5265 10.4952 49.4503 8.1117 50.3556 5.63584C51.2979 8.37037 52.2402 10.9109 53.1826 13.2574C54.1249 15.6039 55.1503 17.8489 56.2589 19.9921V17.4424C56.2589 14.56 56.1203 11.7239 55.8432 8.93391C55.5845 6.14394 55.1411 3.49255 54.5129 0.97974C54.5868 1.03517 54.8085 1.10908 55.178 1.20146C55.5476 1.27537 56.0279 1.34927 56.6192 1.42318C57.2289 1.47861 57.931 1.53404 58.7255 1.58947C59.52 1.6449 60.3884 1.67261 61.3307 1.67261C62.7719 1.67261 64.3239 1.58947 65.9868 1.42318C67.6682 1.25689 69.3496 0.961263 71.0309 0.536302C70.6244 1.34927 70.2364 2.44863 69.8669 3.83437C69.4974 5.20164 69.1463 6.76291 68.8137 8.51818C68.4996 10.2735 68.2132 12.1858 67.9546 14.2552C67.6959 16.3245 67.4742 18.4678 67.2894 20.685C67.1047 22.8837 66.9568 25.1101 66.846 27.3643C66.7536 29.6184 66.7074 31.8171 66.7074 33.9604C66.7074 35.3277 66.7259 36.6488 66.7628 37.9237C66.8183 39.1801 66.8922 40.3903 66.9846 41.5543C65.1369 41.2402 63.4925 41.0277 62.0513 40.9169C60.6101 40.7875 59.3445 40.7229 58.2544 40.7229C57.5523 40.7229 56.9333 40.7413 56.3975 40.7783C55.8617 40.8152 55.409 40.8522 55.0394 40.8891C54.6145 40.9446 54.245 41 53.9309 41.0554C53.7091 39.411 53.4782 37.8036 53.238 36.233C52.9978 34.6625 52.7206 33.1659 52.4065 31.7432C52.0924 30.3021 51.7321 28.9533 51.3257 27.6969C50.9192 26.422 50.4295 25.258 49.8568 24.2048C49.4318 25.4058 49.0623 26.6437 48.7482 27.9186C48.4526 29.1935 48.2031 30.5423 47.9999 31.965C47.7966 33.3877 47.6488 34.8935 47.5564 36.4825C47.4641 38.0715 47.4179 39.7621 47.4179 41.5543C45.5702 41.2402 43.9073 41.0277 42.4292 40.9169C40.9695 40.7875 39.7131 40.7229 38.66 40.7229C37.9394 40.7229 37.3112 40.7413 36.7754 40.7783C36.2395 40.8152 35.7869 40.8522 35.4173 40.8891C34.9924 40.9446 34.6413 41 34.3642 41.0554C34.475 39.0045 34.5305 36.852 34.5305 34.5979C34.5305 32.4915 34.4843 30.3483 34.3919 28.168C34.2995 25.9878 34.1609 23.8353 33.9762 21.7105C33.7914 19.5672 33.5604 17.4793 33.2833 15.4469C33.0246 13.4145 32.7197 11.5114 32.3687 9.73764C32.0361 7.94541 31.6481 6.31023 31.2047 4.83211C30.7797 3.3355 30.3178 2.05138 29.8189 0.97974C30.3547 1.12755 30.983 1.24765 31.7035 1.34003C32.3133 1.43242 33.0431 1.51556 33.893 1.58947C34.7614 1.6449 35.7314 1.67261 36.8031 1.67261C38.1334 1.67261 39.6023 1.58947 41.2097 1.42318C42.8357 1.25689 44.5448 0.961263 46.337 0.536302Z" fill="#FA8232"/>
</svg>
