<svg width="63" height="63" viewBox="0 0 63 63" fill="none" xmlns="http://www.w3.org/2000/svg">
<rect width="62" height="62" transform="translate(0.5 0.5)" fill="#FFC400" fill-opacity="0.1"/>
<path d="M31.4418 43.8182C29.7448 43.8182 28.2334 43.5265 26.9077 42.9432C25.5895 42.3523 24.5478 41.5417 23.7827 40.5114C23.0251 39.4735 22.6349 38.2765 22.6122 36.9205H27.5668C27.5971 37.4886 27.7827 37.9886 28.1236 38.4205C28.4721 38.8447 28.9342 39.1742 29.5099 39.4091C30.0857 39.6439 30.7334 39.7614 31.4531 39.7614C32.2031 39.7614 32.866 39.6288 33.4418 39.3636C34.0175 39.0985 34.4683 38.7311 34.794 38.2614C35.1198 37.7917 35.2827 37.25 35.2827 36.6364C35.2827 36.0152 35.1084 35.4659 34.7599 34.9886C34.419 34.5038 33.9266 34.125 33.2827 33.8523C32.6463 33.5795 31.8887 33.4432 31.0099 33.4432H28.8395V29.8295H31.0099C31.7524 29.8295 32.4077 29.7008 32.9759 29.4432C33.5516 29.1856 33.9986 28.8295 34.3168 28.375C34.6349 27.9129 34.794 27.375 34.794 26.7614C34.794 26.178 34.6539 25.6667 34.3736 25.2273C34.1009 24.7803 33.7145 24.4318 33.2145 24.1818C32.7221 23.9318 32.1463 23.8068 31.4872 23.8068C30.8205 23.8068 30.2107 23.928 29.6577 24.1705C29.1046 24.4053 28.6615 24.7424 28.3281 25.1818C27.9948 25.6212 27.8168 26.1364 27.794 26.7273H23.0781C23.1009 25.3864 23.4834 24.2045 24.2259 23.1818C24.9683 22.1591 25.9683 21.3598 27.2259 20.7841C28.491 20.2008 29.919 19.9091 31.5099 19.9091C33.116 19.9091 34.5213 20.2008 35.7259 20.7841C36.9304 21.3674 37.866 22.1553 38.5327 23.1477C39.2069 24.1326 39.5402 25.2386 39.5327 26.4659C39.5402 27.7689 39.1349 28.8561 38.3168 29.7273C37.5062 30.5985 36.4493 31.1515 35.1463 31.3864V31.5682C36.8584 31.7879 38.1615 32.3826 39.0554 33.3523C39.9569 34.3144 40.4039 35.5189 40.3963 36.9659C40.4039 38.2917 40.0213 39.4697 39.2486 40.5C38.4834 41.5303 37.4266 42.3409 36.0781 42.9318C34.7296 43.5227 33.1842 43.8182 31.4418 43.8182Z" fill="#FFC300"/>
</svg>
