<svg width="61" height="63" viewBox="0 0 61 63" fill="none" xmlns="http://www.w3.org/2000/svg">
<rect width="61" height="62" transform="translate(0 0.5)" fill="#FF3FD5" fill-opacity="0.1"/>
<path d="M30.5739 43.8182C28.9678 43.8182 27.536 43.5227 26.2784 42.9318C25.0284 42.3409 24.036 41.5265 23.3011 40.4886C22.5663 39.4508 22.1837 38.2614 22.1534 36.9205H26.9261C26.9792 37.822 27.358 38.553 28.0625 39.1136C28.767 39.6742 29.6042 39.9545 30.5739 39.9545C31.3466 39.9545 32.0284 39.7841 32.6193 39.4432C33.2178 39.0947 33.6837 38.6136 34.017 38C34.358 37.3788 34.5284 36.6667 34.5284 35.8636C34.5284 35.0455 34.3542 34.3258 34.0057 33.7045C33.6648 33.0833 33.1913 32.5985 32.5852 32.25C31.9792 31.9015 31.286 31.7235 30.5057 31.7159C29.8239 31.7159 29.161 31.8561 28.517 32.1364C27.8807 32.4167 27.3845 32.7992 27.0284 33.2841L22.6534 32.5L23.7557 20.2273H37.983V24.25H27.8125L27.2102 30.0795H27.3466C27.7557 29.5038 28.3731 29.0265 29.1989 28.6477C30.0246 28.2689 30.9489 28.0795 31.9716 28.0795C33.3731 28.0795 34.6231 28.4091 35.7216 29.0682C36.8201 29.7273 37.6875 30.6326 38.3239 31.7841C38.9602 32.928 39.2746 34.2462 39.267 35.7386C39.2746 37.3068 38.911 38.7008 38.1761 39.9205C37.4489 41.1326 36.4299 42.0871 35.1193 42.7841C33.8163 43.4735 32.3011 43.8182 30.5739 43.8182Z" fill="#FF3FD5"/>
</svg>
