<svg width="61" height="63" viewBox="0 0 61 63" fill="none" xmlns="http://www.w3.org/2000/svg">
<rect width="61" height="62" transform="translate(0 0.5)" fill="#B91114" fill-opacity="0.1"/>
<path d="M22.3082 43.5V39.9545L30.5923 32.2841C31.2969 31.6023 31.8878 30.9886 32.3651 30.4432C32.8499 29.8977 33.2173 29.3636 33.4673 28.8409C33.7173 28.3106 33.8423 27.7386 33.8423 27.125C33.8423 26.4432 33.687 25.8561 33.3764 25.3636C33.0658 24.8636 32.6416 24.4811 32.1037 24.2159C31.5658 23.9432 30.956 23.8068 30.2741 23.8068C29.562 23.8068 28.9408 23.9508 28.4105 24.2386C27.8802 24.5265 27.4711 24.9394 27.1832 25.4773C26.8954 26.0152 26.7514 26.6553 26.7514 27.3977H22.081C22.081 25.875 22.4257 24.553 23.1151 23.4318C23.8045 22.3106 24.7704 21.4432 26.0128 20.8295C27.2552 20.2159 28.687 19.9091 30.3082 19.9091C31.9749 19.9091 33.4257 20.2045 34.6605 20.7955C35.9029 21.3788 36.8688 22.1894 37.5582 23.2273C38.2476 24.2652 38.5923 25.4545 38.5923 26.7955C38.5923 27.6742 38.4181 28.5417 38.0696 29.3977C37.7287 30.2538 37.1188 31.2045 36.2401 32.25C35.3613 33.2879 34.1226 34.5341 32.5241 35.9886L29.1264 39.3182V39.4773H38.8991V43.5H22.3082Z" fill="#B91114"/>
</svg>
